<?xml version="1.0" encoding="utf-8"?>
<!-- Generator: Adobe Illustrator 27.5.0, SVG Export Plug-In . SVG Version: 6.00 Build 0)  -->
<svg version="1.1" xmlns="http://www.w3.org/2000/svg" xmlns:xlink="http://www.w3.org/1999/xlink" x="0px" y="0px"
	 viewBox="0 0 500 500" style="enable-background:new 0 0 500 500;" xml:space="preserve">
<g id="Floor">
	<g id="XMLID_15997_">
		<g id="XMLID_15998_">
			<path style="fill:#F0F0F0;" d="M98.294,395.295c83.786,43.77,219.629,43.772,303.412,0.001
				c83.786-43.771,83.786-114.736,0-158.506c-83.785-43.77-219.628-43.77-303.413-0.001
				C14.508,280.559,14.508,351.525,98.294,395.295z"/>
		</g>
	</g>
</g>
<g id="Plants">
	<g id="XMLID_15937_">
		<g id="XMLID_15913_">
			<g id="XMLID_15915_">
				<path style="fill:#27DEBF;" d="M419.498,309.582c0,0,1.057-5.28,9.569-9.36c8.291-3.974,13.071-3.074,18.762-5.365
					c5.762-2.318,1.605-13.047-14.019-8.264c-14.29,4.375-15.743,16.748-15.743,16.748L419.498,309.582z"/>
				<path style="opacity:0.2;" d="M419.498,309.582c0,0,1.057-5.28,9.569-9.36c8.291-3.974,13.071-3.074,18.762-5.365
					c5.762-2.318,1.605-13.047-14.019-8.264c-14.29,4.375-15.743,16.748-15.743,16.748L419.498,309.582z"/>
			</g>
			<g id="XMLID_15914_">
				<path style="fill:#FAFAFA;" d="M418.023,307.596c-0.059,0-0.118-0.01-0.177-0.03c-0.284-0.098-0.436-0.407-0.338-0.691
					c1.964-5.724,7.02-11.041,13.522-14.226c8.36-4.093,14.313-2.786,14.563-2.728c0.292,0.067,0.475,0.359,0.407,0.651
					c-0.067,0.294-0.357,0.479-0.652,0.409c-0.058-0.013-5.854-1.265-13.84,2.646c-6.249,3.059-11.099,8.145-12.972,13.6
					C418.461,307.453,418.25,307.596,418.023,307.596z"/>
			</g>
		</g>
		<g id="XMLID_15910_">
			<g id="XMLID_15912_">
				<path style="fill:#27DEBF;" d="M418.274,302.952c0,0,1.026-3.015,4.846-8.868c6.644-10.183,17.472-14.63,22.205-20.449
					c5.109-6.28-3.717-10.162-11.643-7.963c-4.542,1.26-8.683,5.398-10.851,8.192c-7.607,9.804-7.552,20.99-7.552,20.99
					L418.274,302.952z"/>
			</g>
			<g id="XMLID_15911_">
				<path style="fill:#FAFAFA;" d="M416.776,303.239c-0.005,0-0.01-0.001-0.016-0.001c-0.3-0.008-0.537-0.259-0.528-0.56
					c0.002-0.094,0.325-9.533,5.504-18.845c5.993-10.775,14.904-14.604,15.281-14.761c0.273-0.118,0.595,0.014,0.712,0.291
					c0.116,0.277-0.015,0.597-0.291,0.713c-0.089,0.037-8.949,3.857-14.751,14.286c-5.051,9.081-5.364,18.255-5.367,18.347
					C417.313,303.005,417.07,303.239,416.776,303.239z"/>
			</g>
		</g>
	</g>
	<g id="XMLID_15855_">
		<g id="XMLID_15856_">
			<path style="fill:#27DEBF;" d="M126.006,312.014c-7.189-4.838-7.511-17.835-6.467-26.024c1.654-12.98-5.022-16.01-8.394-10.263
				c-1.64,2.797-3.699,8.854-3.464,15.91c0.368,11.06,5.161,24.289,16.76,29.091L126.006,312.014z"/>
			<path style="opacity:0.2;" d="M126.006,312.014c-7.189-4.838-7.511-17.835-6.467-26.024c1.654-12.98-5.022-16.01-8.394-10.263
				c-1.64,2.797-3.699,8.854-3.464,15.91c0.368,11.06,5.161,24.289,16.76,29.091L126.006,312.014z"/>
		</g>
		<g id="XMLID_15857_">
			<path style="fill:#FAFAFA;" d="M124.524,319.988c-0.115,0-0.231-0.039-0.325-0.12c-12.173-10.411-14.077-29.014-10.694-41.892
				c0.07-0.268,0.343-0.432,0.61-0.357c0.267,0.07,0.427,0.344,0.356,0.61c-3.306,12.586-1.468,30.746,10.378,40.878
				c0.21,0.18,0.234,0.495,0.055,0.705C124.805,319.929,124.665,319.988,124.524,319.988z"/>
		</g>
	</g>
	<g id="XMLID_15848_">
		<g id="XMLID_15851_">
			<path style="fill:#27DEBF;" d="M136.807,335.961c-6.258,4.494-20.642,8.385-25.326,0.676c-4.352-7.163-1.441-10.301-10.275-9.061
				c-8.833,1.239-10.857-5.619-8.771-11.377c2.086-5.758-6.606-14.187-0.26-20.729c6.347-6.542,10.037,7.059,13.684,8.534
				c3.647,1.475,5.929-1.701,10.172,0.61c4.244,2.312,4.643,11.754,8.774,11.938c6.766,0.303,18.147,0.261,18.985,6.292
				C144.629,328.877,136.807,335.961,136.807,335.961z"/>
		</g>
		<g id="XMLID_15852_">
			<path style="fill:#FAFAFA;" d="M139.401,333.364c-0.017,0-0.035-0.001-0.052-0.003c-32.752-3.424-45.422-31.971-46.202-36.16
				c-0.05-0.272,0.129-0.533,0.4-0.583c0.268-0.052,0.532,0.128,0.583,0.399c0.761,4.094,13.174,31.988,45.322,35.35
				c0.275,0.028,0.474,0.274,0.445,0.549C139.871,333.173,139.654,333.364,139.401,333.364z"/>
		</g>
		<g id="XMLID_15853_">
			<path style="fill:#FAFAFA;" d="M103.589,320.56c-3.325,0-5.999-0.467-6.167-0.497c-0.272-0.049-0.453-0.309-0.404-0.58
				c0.048-0.272,0.307-0.452,0.58-0.404c0.06,0.01,6.154,1.073,11.288-0.014c0.271-0.053,0.536,0.115,0.593,0.386
				c0.057,0.271-0.116,0.535-0.386,0.593C107.258,320.431,105.333,320.56,103.589,320.56z"/>
		</g>
		<g id="XMLID_15854_">
			<path style="fill:#FAFAFA;" d="M113.36,323.555c-0.037,0-0.073-0.004-0.11-0.013c-0.269-0.061-0.438-0.328-0.378-0.597
				c1.668-7.404,0.719-13.516,0.71-13.577c-0.044-0.272,0.142-0.528,0.414-0.572c0.271-0.05,0.529,0.142,0.573,0.413
				c0.041,0.256,0.991,6.353-0.721,13.955C113.795,323.397,113.588,323.555,113.36,323.555z"/>
		</g>
	</g>
</g>
<g id="Icons">
	<g>
		<g id="XMLID_15872_">
			<g id="XMLID_15903_">
				<path style="fill:#27DEBF;" d="M52.073,284.425l15.692-9.061c1.345-0.776,3.526-0.776,4.872,0l1.983,1.146
					c1.345,0.776,2.436,2.665,2.436,4.219v18.12c0,1.554-1.09,3.442-2.436,4.219l-15.692,9.06c-1.345,0.776-3.526,0.776-4.872,0
					l-1.983-1.146c-1.345-0.776-2.436-2.665-2.436-4.219v-18.12C49.637,287.09,50.727,285.201,52.073,284.425z"/>
				<path style="opacity:0.5;fill:#FAFAFA;" d="M52.073,284.425l15.692-9.061c1.345-0.776,3.526-0.776,4.872,0l1.983,1.146
					c1.345,0.776,2.436,2.665,2.436,4.219v18.12c0,1.554-1.09,3.442-2.436,4.219l-15.692,9.06c-1.345,0.776-3.526,0.776-4.872,0
					l-1.983-1.146c-1.345-0.776-2.436-2.665-2.436-4.219v-18.12C49.637,287.09,50.727,285.201,52.073,284.425z"/>
			</g>
			<g id="XMLID_15902_">
				<path style="fill:#27DEBF;" d="M77.056,280.728c0-1.554-1.09-2.184-2.436-1.406l-15.693,9.06
					c-1.345,0.777-2.436,2.666-2.436,4.219l0,18.121c0,1.553,1.09,2.183,2.436,1.406l15.692-9.06
					c1.346-0.776,2.436-2.665,2.436-4.219V280.728z"/>
			</g>
			<g id="XMLID_15901_">
				<path style="fill:#27DEBF;" d="M49.637,306.764c0,1.554,1.091,3.442,2.436,4.219l1.983,1.146
					c1.216,0.701,3.108,0.763,4.455,0.196c-1.146,0.434-2.019-0.214-2.019-1.602l0-18.121c0-0.776,0.273-1.637,0.713-2.4
					l-6.854-3.957c-0.441,0.763-0.713,1.624-0.713,2.4V306.764z"/>
				<path style="opacity:0.1;" d="M49.637,306.764c0,1.554,1.091,3.442,2.436,4.219l1.983,1.146
					c1.216,0.701,3.108,0.763,4.455,0.196c-1.146,0.434-2.019-0.214-2.019-1.602l0-18.121c0-0.776,0.273-1.637,0.713-2.4
					l-6.854-3.957c-0.441,0.763-0.713,1.624-0.713,2.4V306.764z"/>
			</g>
		</g>
		<g id="XMLID_15569_">
			<path style="fill:#FAFAFA;" d="M60.13,293.844l13.345-7.738c0.358-0.208,0.649-0.04,0.649,0.374v9.054
				c0,0.414-0.291,0.918-0.649,1.126l-13.345,7.738c-0.358,0.208-0.649,0.041-0.649-0.373v-9.054
				C59.482,294.557,59.772,294.052,60.13,293.844z"/>
		</g>
		<g id="XMLID_15846_">
			<polygon style="fill:#E0E0E0;" points="59.482,294.221 67.457,296.806 74.124,285.729 67.673,297.738 			"/>
		</g>
	</g>
	<g>
		<g id="XMLID_15866_">
			<g id="XMLID_15871_">
				<path style="fill:#27DEBF;" d="M52.073,238.691l15.692-9.06c1.345-0.777,3.526-0.777,4.872,0l1.983,1.145
					c1.346,0.776,2.436,2.665,2.436,4.219l0,18.12c0,1.554-1.09,3.442-2.436,4.219l-15.693,9.06c-1.345,0.776-3.526,0.776-4.871,0
					l-1.983-1.146c-1.345-0.776-2.436-2.665-2.436-4.219v-18.12C49.637,241.357,50.728,239.468,52.073,238.691z"/>
				<path style="opacity:0.5;fill:#FAFAFA;" d="M52.073,238.691l15.692-9.06c1.345-0.777,3.526-0.777,4.872,0l1.983,1.145
					c1.346,0.776,2.436,2.665,2.436,4.219l0,18.12c0,1.554-1.09,3.442-2.436,4.219l-15.693,9.06c-1.345,0.776-3.526,0.776-4.871,0
					l-1.983-1.146c-1.345-0.776-2.436-2.665-2.436-4.219v-18.12C49.637,241.357,50.728,239.468,52.073,238.691z"/>
			</g>
			<g id="XMLID_15870_">
				<path style="fill:#27DEBF;" d="M77.056,234.995c0-1.553-1.09-2.183-2.436-1.406l-15.692,9.06
					c-1.345,0.777-2.436,2.666-2.436,4.219v18.121c0,1.553,1.09,2.183,2.436,1.406l15.693-9.06c1.345-0.776,2.436-2.665,2.436-4.219
					L77.056,234.995z"/>
			</g>
			<g id="XMLID_15869_">
				<path style="fill:#27DEBF;" d="M49.637,261.03c0,1.554,1.091,3.442,2.436,4.219l1.983,1.146
					c1.215,0.701,3.107,0.763,4.455,0.196c-1.147,0.433-2.02-0.214-2.02-1.602v-18.121c0-0.777,0.272-1.637,0.713-2.4l-6.854-3.958
					c-0.441,0.764-0.713,1.624-0.713,2.401V261.03z"/>
				<path style="opacity:0.1;" d="M49.637,261.03c0,1.554,1.091,3.442,2.436,4.219l1.983,1.146c1.215,0.701,3.107,0.763,4.455,0.196
					c-1.147,0.433-2.02-0.214-2.02-1.602v-18.121c0-0.777,0.272-1.637,0.713-2.4l-6.854-3.958c-0.441,0.764-0.713,1.624-0.713,2.401
					V261.03z"/>
			</g>
		</g>
		<g id="XMLID_15847_">
			<g id="XMLID_15864_">
				<path style="fill:#FAFAFA;" d="M66.621,256.949l-1.67-0.133c-2.198-0.176-4.819-1.045-4.819-4.186
					c0-2.129,1.495-4.719,3.339-5.784c1.437-0.83,2.662-0.489,3.132,0.708c0.471-1.741,1.696-3.496,3.132-4.326
					c1.845-1.064,3.339-0.201,3.339,1.928c0,3.082-2.606,6.985-4.792,9.716L66.621,256.949z"/>
			</g>
		</g>
	</g>
	<g>
		<g id="XMLID_15904_">
			<g id="XMLID_15909_">
				<path style="fill:#27DEBF;" d="M52.073,192.971l15.692-9.061c1.345-0.776,3.526-0.776,4.872,0l1.983,1.145
					c1.345,0.777,2.436,2.666,2.436,4.219v18.12c0,1.554-1.09,3.442-2.436,4.219l-15.692,9.06c-1.345,0.777-3.526,0.777-4.872,0
					l-1.983-1.145c-1.345-0.777-2.436-2.665-2.436-4.219v-18.12C49.637,195.636,50.727,193.747,52.073,192.971z"/>
				<path style="opacity:0.5;fill:#FAFAFA;" d="M52.073,192.971l15.692-9.061c1.345-0.776,3.526-0.776,4.872,0l1.983,1.145
					c1.345,0.777,2.436,2.666,2.436,4.219v18.12c0,1.554-1.09,3.442-2.436,4.219l-15.692,9.06c-1.345,0.777-3.526,0.777-4.872,0
					l-1.983-1.145c-1.345-0.777-2.436-2.665-2.436-4.219v-18.12C49.637,195.636,50.727,193.747,52.073,192.971z"/>
			</g>
			<g id="XMLID_15908_">
				<path style="fill:#27DEBF;" d="M58.928,220.673c-1.345,0.777-2.436,0.148-2.436-1.406l0-18.12c0-1.553,1.091-3.442,2.436-4.219
					l15.693-9.061c1.345-0.776,2.436-0.146,2.436,1.407v18.12c0,1.554-1.09,3.442-2.436,4.219"/>
			</g>
			<g id="XMLID_15907_">
				<path style="fill:#27DEBF;" d="M49.637,215.31c0,1.554,1.091,3.442,2.436,4.219l1.983,1.145
					c1.216,0.702,3.108,0.763,4.455,0.196c-1.146,0.434-2.019-0.213-2.019-1.602l0-18.12c0-0.777,0.273-1.637,0.713-2.401
					l-6.854-3.957c-0.441,0.764-0.713,1.624-0.713,2.401V215.31z"/>
				<path style="opacity:0.1;" d="M49.637,215.31c0,1.554,1.091,3.442,2.436,4.219l1.983,1.145c1.216,0.702,3.108,0.763,4.455,0.196
					c-1.146,0.434-2.019-0.213-2.019-1.602l0-18.12c0-0.777,0.273-1.637,0.713-2.401l-6.854-3.957
					c-0.441,0.764-0.713,1.624-0.713,2.401V215.31z"/>
			</g>
		</g>
		<g id="XMLID_15867_">
			<g id="XMLID_15873_">
				<path style="fill:#FAFAFA;" d="M63.91,204.033c0,0,1.834-4.22,2.008-4.829c0.174-0.609-0.012-2.737-0.014-3.142
					c-0.001-0.406,1.67-1.533,2.204-0.371c0.535,1.162,0.584,2.353,0.282,3.9l4.069-2.373c0.858-0.501,1.215,0.206,1.217,0.764
					c0.004,0.785-0.435,1.473-0.654,1.753c0,0,0.815-0.247,0.82,0.843c0.003,0.608-0.368,1.485-0.984,1.996
					c0,0,0.266,0.201,0.269,0.961c0.002,0.507-0.566,1.702-1.138,2.036c0,0,0.178,0.353,0.181,0.961
					c0.003,0.735-0.61,1.829-1.49,2.342c-0.88,0.513-6.732,3.926-6.732,3.926L63.91,204.033z"/>
			</g>
			<g id="XMLID_15868_">
				<polygon style="fill:#FAFAFA;" points="60.052,216.258 62.985,214.547 62.941,204.344 60.008,206.055 				"/>
			</g>
		</g>
	</g>
	<g id="XMLID_15863_">
		<g id="XMLID_15880_">
			<g id="XMLID_15883_">
				<path style="fill:#27DEBF;" d="M43.479,139.455l24.056-13.889c2.062-1.19,5.406-1.19,7.468,0l3.04,1.755
					c2.062,1.191,3.734,4.086,3.734,6.467l0,27.778c0,2.381-1.672,5.277-3.734,6.467l-24.056,13.889
					c-2.063,1.191-5.406,1.191-7.468,0l-3.04-1.755c-2.062-1.19-3.734-4.086-3.734-6.467v-27.778
					C39.745,143.54,41.416,140.645,43.479,139.455z"/>
				<path style="opacity:0.1;" d="M43.479,139.455l24.056-13.889c2.062-1.19,5.406-1.19,7.468,0l3.04,1.755
					c2.062,1.191,3.734,4.086,3.734,6.467l0,27.778c0,2.381-1.672,5.277-3.734,6.467l-24.056,13.889
					c-2.063,1.191-5.406,1.191-7.468,0l-3.04-1.755c-2.062-1.19-3.734-4.086-3.734-6.467v-27.778
					C39.745,143.54,41.416,140.645,43.479,139.455z"/>
			</g>
			<g id="XMLID_15875_">
				<path style="fill:#27DEBF;" d="M81.777,133.616c0-1.384-0.682-4.841-4.244-2.654c-3.563,2.187-21.113,12.103-23.518,13.542
					c-1.861,1.113-3.071,2.468-3.762,4.131l1.905,1.919L81.777,133.616z"/>
				<path style="opacity:0.2;" d="M81.777,133.616c0-1.384-0.682-4.841-4.244-2.654c-3.563,2.187-21.113,12.103-23.518,13.542
					c-1.861,1.113-3.071,2.468-3.762,4.131l1.905,1.919L81.777,133.616z"/>
			</g>
			<g id="XMLID_15882_">
				<path style="fill:#27DEBF;" d="M53.987,181.922c-2.063,1.191-3.734,0.226-3.734-2.156l0-27.778c0-2.381,1.672-5.276,3.734-6.467
					l24.056-13.889c2.062-1.191,3.734-0.225,3.734,2.156l0,27.778c0,2.381-1.672,5.277-3.734,6.467"/>
				<path style="opacity:0.1;" d="M53.987,181.922c-2.063,1.191-3.734,0.226-3.734-2.156l0-27.778c0-2.381,1.672-5.276,3.734-6.467
					l24.056-13.889c2.062-1.191,3.734-0.225,3.734,2.156l0,27.778c0,2.381-1.672,5.277-3.734,6.467"/>
			</g>
			<g id="XMLID_15881_">
				<path style="fill:#27DEBF;" d="M39.745,173.7c0,2.381,1.672,5.277,3.734,6.467l3.04,1.755c1.864,1.076,4.765,1.17,6.83,0.301
					c-1.758,0.664-3.096-0.327-3.096-2.457l0-27.778c0-1.191,0.418-2.51,1.093-3.68l-10.508-6.067
					c-0.676,1.17-1.093,2.489-1.093,3.68V173.7z"/>
				<path style="opacity:0.2;" d="M39.745,173.7c0,2.381,1.672,5.277,3.734,6.467l3.04,1.755c1.864,1.076,4.765,1.17,6.83,0.301
					c-1.758,0.664-3.096-0.327-3.096-2.457l0-27.778c0-1.191,0.418-2.51,1.093-3.68l-10.508-6.067
					c-0.676,1.17-1.093,2.489-1.093,3.68V173.7z"/>
			</g>
		</g>
		<g id="XMLID_15862_">
			<path style="fill:#FAFAFA;" d="M66.736,142.275l3.123,5.504l6.984-2.86c0.66-0.271,0.923,0.514,0.446,1.327l-5.054,8.605
				l1.193,7.343c0.112,0.694-0.577,1.67-1.167,1.653l-6.247-0.186l-6.246,7.398c-0.59,0.699-1.279,0.518-1.167-0.305l1.193-8.721
				l-5.054-2.77c-0.478-0.262-0.214-1.35,0.446-1.841l6.984-5.204l3.123-9.111C65.589,142.248,66.441,141.755,66.736,142.275z"/>
		</g>
	</g>
</g>
<g id="Shadow">
	<g id="XMLID_15961_">
		<path style="fill:#E0E0E0;" d="M404.959,269.181c-11.978,5.709-31.398,5.709-43.376,0c-11.978-5.708-11.978-14.965,0-20.674
			c11.978-5.709,31.398-5.709,43.376,0C416.938,254.216,416.938,263.473,404.959,269.181z"/>
	</g>
</g>
<g id="Device">
	<g id="XMLID_15860_">
		<g id="XMLID_15587_">
			<path style="fill:#37474F;" d="M132.2,335.47c0,2.59,1.939,5.81,4.331,7.19l121.325,70.047c2.392,1.381,6.27,1.381,8.66,0
				l166.008-95.844c2.392-1.381,4.33-4.601,4.33-7.19c0-2.591-1.938-5.811-4.33-7.191l-121.326-70.047
				c-2.391-1.38-6.269-1.38-8.66,0l-166.008,95.845C134.138,329.66,132.199,332.879,132.2,335.47z"/>
		</g>
		<g id="XMLID_15874_">
			<path style="fill:#263238;" d="M182.256,301.879l-45.727,26.4c-2.391,1.381-4.33,4.6-4.33,7.19c0.001,2.59,1.939,5.81,4.331,7.19
				l121.325,70.047c1.196,0.69,2.764,1.036,4.331,1.036V301.879H182.256z"/>
		</g>
		<g id="XMLID_15585_">
			<path style="fill:#455A64;" d="M128.138,328.434c-2.243-1.295-4.062-4.584-4.062-7.345l-0.001-144.785
				c0-2.761,1.938-6.119,4.33-7.5L294.412,72.96c2.392-1.38,6.149-1.45,8.393-0.155c2.244,1.295,4.063,4.584,4.063,7.345v144.785
				c0,2.762-1.939,6.12-4.33,7.5l-166.008,95.845C134.138,329.66,130.381,329.729,128.138,328.434z"/>
		</g>
		<g id="XMLID_15592_">
			<path style="fill:#263238;" d="M144.387,183.031l-19.043-10.995c-0.783,1.357-1.268,2.887-1.268,4.268l0.001,144.785
				c0,2.761,1.818,6.05,4.062,7.345c2.243,1.296,6.001,1.227,8.392-0.154l18.935-10.933L144.387,183.031z"/>
		</g>
		<g id="XMLID_15584_">
			<path style="fill:#37474F;" d="M132.199,180.994v144.785c0,2.761,1.939,3.881,4.33,2.5l166.008-95.845
				c2.392-1.38,4.33-4.738,4.33-7.5V80.15c0-2.761-1.939-3.88-4.33-2.5l-166.008,95.844
				C134.138,174.875,132.199,178.233,132.199,180.994z"/>
		</g>
		<g id="XMLID_15586_">
			<path style="fill:#455A64;" d="M136.529,333.279l121.326,70.047c2.392,1.381,6.27,1.381,8.66,0l166.008-95.845
				c2.392-1.38,2.392-3.619,0-5l-121.326-70.047c-2.391-1.38-6.269-1.38-8.66,0l-166.008,95.845
				C134.138,329.66,134.138,331.898,136.529,333.279z"/>
		</g>
		<g id="XMLID_15588_">
			<path style="fill:#FAFAFA;" d="M138.858,181.529l161.35-93.154c1.435-0.829,2.598-0.157,2.598,1.5v125.333
				c0,1.657-1.163,3.672-2.598,4.5l-161.35,93.152c-1.435,0.829-2.598,0.157-2.598-1.5V186.029
				C136.26,184.373,137.424,182.358,138.858,181.529z"/>
		</g>
		<g id="XMLID_15589_">
			<path style="fill:#263238;" d="M150.612,329.529l154.091-88.963c1.196-0.69,3.135-0.69,4.33,0l7.882,4.55
				c1.195,0.69,1.195,1.81,0,2.499l-154.114,88.949c-1.196,0.69-3.135,0.69-4.331,0l-7.858-4.536
				C149.416,331.339,149.416,330.22,150.612,329.529z"/>
		</g>
		<g id="XMLID_15590_">
			<path style="fill:#263238;" d="M170.925,341.256l154.089-88.965c1.196-0.69,3.135-0.69,4.33,0l48.477,27.989
				c1.195,0.69,1.195,1.81,0,2.5l-153.913,88.842c-1.196,0.69-3.136,0.693-4.334,0.006l-48.644-27.879
				C169.73,343.063,169.729,341.946,170.925,341.256z"/>
		</g>
		<g id="XMLID_15605_">
			<path style="fill:#E0E0E0;" d="M309.052,292.317l4.824-2.785c0.205-0.119,0.192-0.318-0.027-0.445l-5.579-3.221
				c-0.22-0.127-0.564-0.134-0.77-0.016l-4.824,2.785c-0.205,0.118-0.192,0.317,0.027,0.444l5.579,3.222
				C308.502,292.429,308.847,292.435,309.052,292.317z M299.53,281.249l-4.824,2.785c-0.205,0.119-0.192,0.318,0.027,0.445
				l5.579,3.221c0.22,0.127,0.565,0.134,0.77,0.016l4.824-2.785c0.205-0.118,0.193-0.317-0.027-0.444l-5.579-3.222
				C300.08,281.138,299.735,281.131,299.53,281.249z M283.943,290.249l-8.164,4.714c-0.205,0.117-0.192,0.317,0.027,0.443
				l5.579,3.222c0.22,0.127,0.565,0.134,0.77,0.016l8.164-4.714c0.205-0.118,0.192-0.317-0.027-0.444l-5.578-3.222
				C284.493,290.138,284.148,290.13,283.943,290.249z M292.479,285.32l-4.825,2.786c-0.204,0.117-0.192,0.316,0.028,0.443
				l5.578,3.221c0.221,0.128,0.566,0.135,0.77,0.017l4.824-2.785c0.205-0.119,0.193-0.318-0.026-0.445l-5.579-3.22
				C293.029,285.209,292.685,285.202,292.479,285.32z M273.553,296.248l-4.825,2.785c-0.205,0.119-0.192,0.317,0.027,0.444
				l5.579,3.221c0.22,0.128,0.564,0.135,0.769,0.017l4.824-2.786c0.205-0.118,0.193-0.316-0.027-0.443l-5.578-3.222
				C274.102,296.137,273.757,296.13,273.553,296.248z M266.501,300.319l-4.824,2.785c-0.205,0.118-0.192,0.317,0.027,0.444
				l5.578,3.221c0.221,0.127,0.564,0.135,0.77,0.016l4.825-2.785c0.205-0.118,0.192-0.317-0.027-0.444l-5.579-3.221
				C267.051,300.208,266.706,300.2,266.501,300.319z M288.445,313.417l4.824-2.786c0.204-0.117,0.192-0.317-0.027-0.443
				l-5.579-3.222c-0.22-0.127-0.564-0.134-0.77-0.016l-4.824,2.785c-0.205,0.119-0.193,0.317,0.027,0.445l5.579,3.221
				C287.895,313.528,288.24,313.535,288.445,313.417z M281.394,317.488l4.825-2.786c0.205-0.118,0.192-0.316-0.028-0.444
				l-5.578-3.221c-0.22-0.127-0.564-0.134-0.769-0.016l-4.825,2.785c-0.205,0.118-0.192,0.317,0.027,0.444l5.579,3.221
				C280.844,317.599,281.188,317.606,281.394,317.488z M274.342,321.56l4.825-2.786c0.205-0.118,0.192-0.317-0.027-0.444
				l-5.579-3.221c-0.22-0.127-0.564-0.134-0.77-0.016l-4.824,2.785c-0.205,0.118-0.192,0.317,0.027,0.444l5.578,3.221
				C273.793,321.67,274.137,321.677,274.342,321.56z M267.291,325.63l4.824-2.785c0.205-0.118,0.193-0.317-0.027-0.444l-5.578-3.221
				c-0.221-0.127-0.565-0.135-0.77-0.016l-4.825,2.785c-0.205,0.118-0.192,0.317,0.027,0.444l5.579,3.221
				C266.741,325.741,267.086,325.749,267.291,325.63z M302.001,296.389l4.823-2.786c0.205-0.118,0.193-0.317-0.026-0.444
				l-5.579-3.221c-0.22-0.127-0.564-0.134-0.77-0.016l-4.824,2.785c-0.205,0.118-0.193,0.317,0.026,0.444l5.579,3.221
				C301.45,296.5,301.795,296.507,302.001,296.389z M295.496,309.346l10.763-6.214c0.205-0.118,0.192-0.317-0.027-0.444
				l-13.549-7.822c-0.22-0.127-0.564-0.134-0.77-0.016l-5.566,3.214c-0.205,0.119-0.192,0.317,0.027,0.444l7.173,4.142
				c0.22,0.127,0.231,0.326,0.027,0.444l-4.454,2.571c-0.205,0.118-0.192,0.317,0.027,0.444l5.579,3.221
				C294.946,309.457,295.291,309.464,295.496,309.346z M259.45,304.39l-4.825,2.786c-0.205,0.118-0.192,0.317,0.027,0.444
				l5.579,3.221c0.22,0.127,0.565,0.134,0.77,0.016l4.824-2.785c0.205-0.118,0.193-0.317-0.027-0.444l-5.578-3.221
				C259.999,304.278,259.655,304.272,259.45,304.39z M252.398,308.461l-4.825,2.785c-0.205,0.119-0.193,0.318,0.027,0.445
				l5.579,3.221c0.221,0.127,0.564,0.134,0.77,0.016l4.825-2.785c0.205-0.118,0.192-0.318-0.027-0.444l-5.579-3.222
				C252.948,308.35,252.603,308.343,252.398,308.461z M217.163,354.112c0.22,0.127,0.564,0.134,0.769,0.016l4.825-2.786
				c0.204-0.118,0.192-0.317-0.028-0.444l-5.579-3.221c-0.22-0.127-0.565-0.134-0.77-0.016l-4.825,2.785
				c-0.205,0.119-0.192,0.317,0.027,0.444L217.163,354.112z M195.988,341.029l-4.824,2.786c-0.205,0.118-0.193,0.317,0.027,0.444
				l5.579,3.221c0.22,0.127,0.565,0.134,0.77,0.016l4.825-2.785c0.205-0.118,0.193-0.317-0.028-0.444l-5.578-3.221
				C196.538,340.919,196.193,340.911,195.988,341.029z M207.337,350.582c0.22,0.127,0.565,0.134,0.77,0.016l4.825-2.785
				c0.205-0.118,0.193-0.317-0.027-0.444l-5.579-3.221c-0.22-0.128-0.564-0.135-0.77-0.017l-4.825,2.786
				c-0.205,0.118-0.193,0.317,0.027,0.444L207.337,350.582z M229.613,356.586l4.824-2.785c0.205-0.118,0.193-0.317-0.027-0.444
				l-5.579-3.222c-0.22-0.126-0.564-0.134-0.77-0.015l-4.825,2.785c-0.205,0.118-0.192,0.317,0.028,0.444l5.578,3.221
				C229.063,356.697,229.408,356.705,229.613,356.586z M221.792,360.642c0.22,0.127,0.564,0.134,0.769,0.016l4.825-2.786
				c0.205-0.118,0.193-0.316-0.027-0.443l-5.579-3.221c-0.22-0.128-0.564-0.135-0.77-0.017l-4.825,2.786
				c-0.204,0.118-0.193,0.316,0.027,0.443L221.792,360.642z M203.039,336.959l-4.824,2.785c-0.205,0.118-0.193,0.317,0.027,0.444
				l5.579,3.221c0.22,0.127,0.564,0.135,0.77,0.017l4.825-2.786c0.205-0.118,0.193-0.317-0.027-0.444l-5.579-3.221
				C203.589,336.848,203.244,336.841,203.039,336.959z M238.296,316.603l-4.825,2.785c-0.205,0.118-0.193,0.317,0.027,0.444
				l5.579,3.221c0.22,0.127,0.564,0.135,0.77,0.017l4.825-2.786c0.205-0.118,0.193-0.317-0.027-0.444l-5.579-3.221
				C238.845,316.492,238.5,316.485,238.296,316.603z M210.091,332.888l-4.825,2.785c-0.205,0.118-0.192,0.317,0.027,0.444
				l5.579,3.221c0.22,0.127,0.565,0.135,0.77,0.017l4.824-2.786c0.205-0.118,0.193-0.317-0.027-0.444l-5.579-3.221
				C210.64,332.776,210.296,332.77,210.091,332.888z M245.347,312.532l-4.824,2.786c-0.205,0.117-0.193,0.316,0.028,0.443
				l5.578,3.221c0.22,0.128,0.564,0.135,0.77,0.017l4.824-2.786c0.205-0.118,0.192-0.316-0.027-0.444l-5.579-3.221
				C245.896,312.421,245.552,312.414,245.347,312.532z M231.245,320.675l-4.824,2.785c-0.206,0.118-0.193,0.317,0.027,0.444
				l5.579,3.221c0.22,0.127,0.564,0.135,0.769,0.016l4.824-2.785c0.205-0.118,0.193-0.317-0.027-0.444l-5.579-3.221
				C231.794,320.564,231.449,320.556,231.245,320.675z M224.193,324.745l-4.825,2.786c-0.205,0.118-0.193,0.317,0.027,0.443
				l5.579,3.222c0.22,0.127,0.564,0.134,0.769,0.016l4.825-2.785c0.204-0.118,0.192-0.317-0.028-0.444l-5.579-3.222
				C224.743,324.634,224.398,324.627,224.193,324.745z M217.142,328.816l-4.825,2.785c-0.205,0.119-0.192,0.317,0.027,0.445
				l5.579,3.221c0.22,0.127,0.565,0.134,0.77,0.016l4.825-2.786c0.205-0.118,0.192-0.317-0.028-0.444l-5.579-3.221
				C217.691,328.705,217.347,328.698,217.142,328.816z M253.188,333.772l4.824-2.786c0.205-0.118,0.193-0.317-0.027-0.443
				l-5.578-3.222c-0.221-0.127-0.565-0.134-0.77-0.016l-4.825,2.785c-0.205,0.119-0.192,0.317,0.028,0.445l5.579,3.221
				C252.639,333.884,252.983,333.891,253.188,333.772z M315.118,272.25l-4.825,2.786c-0.205,0.118-0.192,0.316,0.027,0.443
				l5.579,3.222c0.22,0.127,0.565,0.134,0.77,0.016l4.825-2.785c0.205-0.119,0.192-0.317-0.028-0.445l-5.578-3.221
				C315.668,272.139,315.323,272.132,315.118,272.25z M306.582,277.178l-4.824,2.786c-0.205,0.118-0.193,0.316,0.027,0.444
				l5.578,3.221c0.221,0.127,0.564,0.134,0.77,0.016l4.825-2.785c0.204-0.118,0.192-0.317-0.027-0.444l-5.579-3.221
				C307.132,277.066,306.787,277.06,306.582,277.178z M322.169,268.18l-4.824,2.785c-0.205,0.118-0.192,0.317,0.027,0.444
				l5.579,3.221c0.22,0.127,0.564,0.134,0.768,0.016l4.825-2.785c0.205-0.119,0.192-0.317-0.027-0.444l-5.578-3.222
				C322.719,268.068,322.374,268.06,322.169,268.18z M285.671,305.815l4.824-2.785c0.206-0.118,0.193-0.317-0.027-0.444
				l-5.578-3.221c-0.22-0.127-0.564-0.134-0.77-0.016l-4.825,2.785c-0.205,0.118-0.192,0.317,0.027,0.444l5.579,3.221
				C285.121,305.927,285.466,305.934,285.671,305.815z M329.99,264.124c-0.22-0.127-0.565-0.135-0.77-0.017l-4.823,2.786
				c-0.205,0.118-0.193,0.317,0.026,0.444l5.579,3.221c0.22,0.127,0.564,0.134,0.769,0.016l4.824-2.785
				c0.205-0.118,0.193-0.317-0.026-0.444L329.99,264.124z M260.239,329.701l4.825-2.785c0.205-0.119,0.192-0.317-0.028-0.444
				l-5.578-3.222c-0.22-0.127-0.564-0.134-0.77-0.016l-4.824,2.786c-0.205,0.118-0.193,0.317,0.027,0.443l5.578,3.222
				C259.69,329.813,260.034,329.819,260.239,329.701z M346.711,279.776l4.824-2.785c0.205-0.118,0.192-0.317-0.027-0.444
				l-5.579-3.221c-0.22-0.127-0.564-0.134-0.77-0.016l-4.824,2.785c-0.204,0.118-0.192,0.317,0.027,0.444l5.579,3.221
				C346.161,279.888,346.506,279.896,346.711,279.776z M331.69,279.247l4.824-2.786c0.205-0.118,0.192-0.316-0.027-0.443
				l-5.579-3.222c-0.22-0.127-0.564-0.134-0.769-0.016l-4.824,2.785c-0.205,0.119-0.193,0.317,0.027,0.444l5.578,3.222
				C331.14,279.358,331.485,279.365,331.69,279.247z M337.959,268.725c-0.219-0.127-0.565-0.134-0.769-0.016l-4.825,2.786
				c-0.204,0.118-0.192,0.317,0.027,0.443l5.579,3.222c0.22,0.127,0.564,0.134,0.77,0.016l4.824-2.785
				c0.205-0.119,0.193-0.317-0.027-0.444L337.959,268.725z M339.444,267.868l13.548,7.822c0.221,0.127,0.564,0.134,0.77,0.016
				l4.825-2.785c0.205-0.119,0.192-0.317-0.027-0.444l-13.549-7.822c-0.22-0.127-0.564-0.134-0.77-0.016l-4.824,2.785
				C339.212,267.542,339.224,267.741,339.444,267.868z M323.088,276.852l-4.825,2.785c-0.205,0.118-0.192,0.317,0.027,0.444
				l5.579,3.221c0.221,0.127,0.565,0.135,0.77,0.016l4.824-2.785c0.205-0.118,0.193-0.317-0.027-0.444l-5.578-3.221
				C323.637,276.74,323.292,276.733,323.088,276.852z M270.018,307.491l-4.825,2.786c-0.205,0.118-0.192,0.317,0.027,0.443
				l5.579,3.222c0.22,0.127,0.564,0.134,0.77,0.016l4.824-2.785c0.205-0.119,0.193-0.317-0.027-0.444l-5.578-3.222
				C270.566,307.38,270.223,307.373,270.018,307.491z M338.891,283.832c0.219,0.127,0.564,0.134,0.77,0.017l4.824-2.786
				c0.205-0.118,0.192-0.317-0.027-0.444l-5.579-3.221c-0.22-0.127-0.564-0.134-0.77-0.016l-4.824,2.785
				c-0.205,0.118-0.193,0.317,0.027,0.444L338.891,283.832z M277.068,303.421l-4.824,2.785c-0.205,0.118-0.192,0.317,0.027,0.444
				l5.578,3.221c0.221,0.127,0.565,0.135,0.77,0.016l4.825-2.785c0.205-0.118,0.192-0.317-0.027-0.444l-5.579-3.221
				C277.618,303.309,277.273,303.303,277.068,303.421z M224.213,350.041c0.22,0.127,0.565,0.134,0.77,0.016l4.825-2.785
				c0.204-0.119,0.192-0.317-0.028-0.444l-5.579-3.222c-0.22-0.127-0.564-0.134-0.769-0.016l-4.824,2.786
				c-0.206,0.118-0.193,0.317,0.027,0.443L224.213,350.041z M213.607,340.06l-4.825,2.786c-0.205,0.118-0.192,0.317,0.027,0.444
				l5.579,3.221c0.22,0.127,0.565,0.134,0.77,0.016l4.825-2.785c0.205-0.118,0.193-0.317-0.027-0.444l-5.579-3.221
				C214.156,339.948,213.812,339.941,213.607,340.06z M232.034,345.985l4.825-2.785c0.205-0.118,0.193-0.317-0.027-0.444
				l-5.579-3.221c-0.22-0.127-0.565-0.135-0.77-0.017l-4.824,2.786c-0.205,0.118-0.193,0.317,0.027,0.444l5.579,3.221
				C231.485,346.097,231.83,346.103,232.034,345.985z M239.085,341.915l4.825-2.786c0.205-0.118,0.193-0.317-0.027-0.444
				l-5.579-3.221c-0.22-0.127-0.565-0.134-0.77-0.016l-4.824,2.785c-0.205,0.118-0.193,0.317,0.027,0.444l5.579,3.221
				C238.536,342.025,238.881,342.032,239.085,341.915z M246.137,337.843l4.825-2.785c0.205-0.118,0.193-0.317-0.027-0.444
				l-5.579-3.221c-0.22-0.127-0.564-0.134-0.77-0.016l-4.825,2.785c-0.205,0.118-0.193,0.317,0.027,0.444l5.579,3.221
				C245.587,337.954,245.932,337.962,246.137,337.843z M220.658,335.989l-4.825,2.785c-0.205,0.118-0.192,0.317,0.027,0.444
				l5.579,3.221c0.22,0.127,0.564,0.135,0.77,0.016l4.824-2.785c0.206-0.118,0.193-0.317-0.027-0.444l-5.579-3.221
				C221.207,335.878,220.863,335.87,220.658,335.989z M227.709,331.918l-4.825,2.785c-0.205,0.119-0.193,0.317,0.027,0.444
				l5.579,3.222c0.22,0.127,0.564,0.134,0.77,0.016l4.825-2.786c0.205-0.118,0.192-0.316-0.028-0.444l-5.579-3.221
				C228.259,331.807,227.914,331.8,227.709,331.918z M255.915,315.634l-4.825,2.785c-0.205,0.119-0.192,0.317,0.027,0.444
				l5.579,3.221c0.22,0.127,0.564,0.135,0.77,0.016l4.824-2.785c0.205-0.118,0.192-0.317-0.026-0.444l-5.579-3.221
				C256.464,315.522,256.12,315.516,255.915,315.634z M248.863,319.705l-4.825,2.785c-0.205,0.118-0.193,0.317,0.027,0.444
				l5.579,3.221c0.22,0.127,0.566,0.134,0.77,0.016l4.825-2.785c0.204-0.118,0.192-0.317-0.027-0.444l-5.579-3.221
				C249.413,319.594,249.068,319.586,248.863,319.705z M262.966,311.563l-4.824,2.785c-0.205,0.119-0.193,0.317,0.027,0.444
				l5.578,3.222c0.221,0.127,0.564,0.134,0.77,0.016l4.825-2.786c0.205-0.118,0.192-0.316-0.028-0.443l-5.578-3.222
				C263.516,311.451,263.171,311.444,262.966,311.563z M234.761,327.847l-4.825,2.786c-0.205,0.118-0.193,0.317,0.027,0.443
				l5.579,3.222c0.22,0.127,0.564,0.134,0.77,0.016l4.825-2.785c0.205-0.119,0.192-0.317-0.028-0.444l-5.579-3.221
				C235.31,327.736,234.965,327.728,234.761,327.847z M241.811,323.775l-4.824,2.786c-0.205,0.118-0.193,0.317,0.027,0.444
				l5.579,3.221c0.22,0.127,0.564,0.134,0.769,0.016l4.825-2.785c0.205-0.118,0.193-0.317-0.027-0.444l-5.579-3.221
				C242.362,323.664,242.017,323.657,241.811,323.775z M236.664,352.516l4.824-2.786c0.205-0.118,0.193-0.316-0.027-0.444
				l-5.579-3.221c-0.22-0.127-0.564-0.135-0.77-0.016l-4.825,2.785c-0.205,0.118-0.192,0.317,0.028,0.444l5.578,3.221
				C236.114,352.626,236.459,352.634,236.664,352.516z M195.285,348.338l-5.579-3.222c-0.22-0.127-0.564-0.134-0.77-0.016
				l-4.824,2.786c-0.205,0.118-0.193,0.316,0.027,0.444l5.578,3.221c0.221,0.127,0.565,0.134,0.77,0.016l4.825-2.785
				C195.518,348.663,195.505,348.465,195.285,348.338z M205.852,351.439l-5.579-3.22c-0.22-0.128-0.564-0.135-0.77-0.017
				l-7.422,4.285c-0.205,0.118-0.192,0.317,0.028,0.444l5.579,3.221c0.22,0.127,0.564,0.135,0.769,0.017l7.422-4.286
				C206.085,351.765,206.072,351.565,205.852,351.439z M186.726,342.11l-5.578-3.221c-0.22-0.127-0.564-0.135-0.77-0.016
				l-5.938,3.428c-0.205,0.118-0.193,0.317,0.028,0.444l5.578,3.221c0.22,0.127,0.565,0.134,0.77,0.016l5.938-3.428
				C186.958,342.436,186.946,342.237,186.726,342.11z M191.279,339.481c0.219,0.128,0.564,0.135,0.769,0.017l4.824-2.786
				c0.205-0.118,0.193-0.316-0.027-0.443l-5.579-3.222c-0.22-0.127-0.564-0.134-0.77-0.016l-4.824,2.785
				c-0.205,0.119-0.193,0.317,0.027,0.444L191.279,339.481z M215.678,354.969l-5.579-3.221c-0.22-0.127-0.564-0.134-0.77-0.016
				l-9.278,5.357c-0.205,0.118-0.192,0.317,0.028,0.444l5.578,3.221c0.22,0.127,0.564,0.134,0.77,0.017l9.278-5.357
				C215.91,355.295,215.898,355.096,215.678,354.969z M220.308,361.498l-5.579-3.221c-0.22-0.127-0.565-0.134-0.769-0.016
				l-5.938,3.429c-0.205,0.118-0.193,0.317,0.027,0.444l5.579,3.221c0.22,0.127,0.565,0.134,0.77,0.016l5.938-3.429
				C220.54,361.824,220.527,361.625,220.308,361.498z M243.706,309.213c0.22,0.128,0.564,0.135,0.769,0.017l4.825-2.786
				c0.205-0.118,0.193-0.316-0.027-0.444l-5.578-3.221c-0.22-0.127-0.565-0.134-0.77-0.016l-4.824,2.785
				c-0.205,0.119-0.193,0.317,0.027,0.444L243.706,309.213z M229.602,317.355c0.221,0.127,0.565,0.134,0.77,0.016l4.825-2.786
				c0.205-0.117,0.192-0.316-0.028-0.443l-5.579-3.221c-0.22-0.128-0.564-0.135-0.77-0.017l-4.825,2.785
				c-0.205,0.119-0.192,0.317,0.027,0.445L229.602,317.355z M198.33,335.411c0.22,0.127,0.565,0.134,0.77,0.016l4.825-2.785
				c0.205-0.118,0.193-0.317-0.027-0.444l-5.579-3.222c-0.22-0.126-0.565-0.134-0.77-0.016l-4.824,2.786
				c-0.205,0.118-0.193,0.317,0.027,0.444L198.33,335.411z M236.654,313.284c0.22,0.127,0.564,0.135,0.77,0.016l4.825-2.785
				c0.205-0.118,0.192-0.317-0.028-0.444l-5.579-3.221c-0.22-0.127-0.564-0.135-0.77-0.016l-4.824,2.785
				c-0.205,0.118-0.193,0.317,0.027,0.444L236.654,313.284z M222.551,321.427c0.22,0.127,0.565,0.134,0.77,0.016l4.824-2.785
				c0.205-0.118,0.193-0.318-0.027-0.445l-5.579-3.221c-0.22-0.127-0.564-0.134-0.77-0.016l-4.825,2.785
				c-0.205,0.119-0.192,0.317,0.028,0.445L222.551,321.427z M224.183,362.022c-0.221-0.128-0.565-0.135-0.77-0.017l-7.422,4.285
				c-0.205,0.118-0.193,0.317,0.027,0.444l5.579,3.221c0.22,0.128,0.564,0.135,0.77,0.017l7.422-4.285
				c0.206-0.119,0.193-0.317-0.027-0.445L224.183,362.022z M212.432,327.269c0.22,0.127,0.564,0.134,0.77,0.016l4.825-2.785
				c0.205-0.118,0.192-0.317-0.027-0.444l-5.579-3.221c-0.22-0.127-0.565-0.134-0.77-0.016l-4.824,2.785
				c-0.205,0.118-0.193,0.317,0.027,0.444L212.432,327.269z M205.381,331.34c0.22,0.127,0.564,0.134,0.77,0.016l4.825-2.785
				c0.205-0.118,0.192-0.317-0.027-0.444l-5.579-3.221c-0.22-0.128-0.565-0.134-0.77-0.016l-4.825,2.785
				c-0.205,0.118-0.192,0.317,0.028,0.444L205.381,331.34z M354.817,286.6c-0.221-0.127-0.564-0.134-0.77-0.016l-11.876,6.856
				c-0.205,0.118-0.192,0.317,0.027,0.444l5.579,3.221c0.22,0.127,0.564,0.135,0.77,0.016l11.875-6.857
				c0.205-0.118,0.193-0.316-0.026-0.443L354.817,286.6z M339.23,295.6c-0.221-0.127-0.565-0.135-0.77-0.016l-4.825,2.785
				c-0.205,0.118-0.192,0.316,0.027,0.444l5.579,3.221c0.22,0.127,0.564,0.134,0.77,0.016l4.824-2.785
				c0.205-0.118,0.193-0.317-0.027-0.445L339.23,295.6z M243.715,348.444l4.825-2.785c0.205-0.119,0.192-0.318-0.028-0.445
				l-5.579-3.221c-0.22-0.127-0.564-0.134-0.77-0.016l-4.824,2.785c-0.205,0.118-0.193,0.317,0.027,0.444l5.579,3.222
				C243.166,348.556,243.51,348.563,243.715,348.444z M325.128,303.741c-0.221-0.127-0.565-0.134-0.771-0.016l-4.824,2.785
				c-0.205,0.119-0.192,0.317,0.027,0.444l5.579,3.222c0.22,0.127,0.565,0.134,0.77,0.016l4.824-2.786
				c0.205-0.118,0.193-0.317-0.027-0.443L325.128,303.741z M361.868,282.528c-0.22-0.127-0.565-0.134-0.77-0.016l-4.824,2.786
				c-0.205,0.118-0.192,0.317,0.027,0.443l5.579,3.222c0.22,0.127,0.564,0.134,0.77,0.016l4.824-2.785
				c0.205-0.119,0.192-0.317-0.027-0.444L361.868,282.528z M374.499,281.679l-13.549-7.822c-0.221-0.127-0.565-0.134-0.77-0.016
				l-4.824,2.785c-0.206,0.118-0.193,0.317,0.027,0.444l13.548,7.822c0.221,0.127,0.565,0.134,0.77,0.017l4.824-2.786
				C374.731,282.005,374.719,281.806,374.499,281.679z M298.778,318.954c-0.22-0.127-0.565-0.134-0.77-0.016l-5.939,3.428
				c-0.205,0.118-0.192,0.317,0.027,0.445l5.579,3.22c0.22,0.128,0.564,0.135,0.77,0.017l5.938-3.429
				c0.205-0.118,0.193-0.317-0.027-0.444L298.778,318.954z M316.592,308.669c-0.22-0.127-0.565-0.134-0.77-0.016l-7.423,4.286
				c-0.204,0.118-0.192,0.316,0.027,0.443l5.579,3.222c0.22,0.127,0.564,0.134,0.77,0.016l7.423-4.285
				c0.205-0.119,0.192-0.317-0.027-0.444L316.592,308.669z M282.449,328.382c-0.221-0.127-0.565-0.134-0.771-0.016l-39.709,22.927
				c-0.205,0.118-0.193,0.317,0.027,0.443l5.579,3.222c0.22,0.127,0.564,0.134,0.77,0.016l39.71-22.926
				c0.205-0.119,0.193-0.318-0.027-0.445L282.449,328.382z M240.512,352.594c-0.22-0.127-0.565-0.134-0.77-0.016l-5.939,3.429
				c-0.205,0.118-0.192,0.317,0.028,0.444l5.578,3.221c0.221,0.127,0.565,0.134,0.77,0.016l5.938-3.429
				c0.205-0.118,0.193-0.316-0.027-0.443L240.512,352.594z M290.613,323.668c-0.22-0.127-0.564-0.134-0.77-0.016l-5.938,3.428
				c-0.205,0.119-0.193,0.317,0.026,0.445l5.579,3.22c0.22,0.128,0.565,0.135,0.77,0.017l5.938-3.429
				c0.205-0.118,0.192-0.316-0.028-0.444L290.613,323.668z M232.347,357.308c-0.22-0.127-0.564-0.134-0.77-0.016l-5.938,3.429
				c-0.205,0.118-0.192,0.316,0.028,0.444l5.579,3.221c0.22,0.127,0.564,0.134,0.77,0.016l5.938-3.428
				c0.205-0.119,0.193-0.317-0.027-0.445L232.347,357.308z M306.942,314.24c-0.22-0.127-0.564-0.134-0.77-0.016l-5.939,3.429
				c-0.204,0.118-0.192,0.316,0.028,0.443l5.579,3.221c0.22,0.128,0.564,0.135,0.769,0.017l5.938-3.429
				c0.205-0.118,0.192-0.317-0.027-0.444L306.942,314.24z M332.179,299.67c-0.22-0.127-0.564-0.134-0.77-0.016l-4.824,2.785
				c-0.205,0.118-0.192,0.317,0.027,0.444l5.578,3.222c0.221,0.127,0.564,0.134,0.77,0.016l4.825-2.785
				c0.205-0.119,0.192-0.317-0.027-0.445L332.179,299.67z M347.629,288.449l4.824-2.785c0.205-0.119,0.193-0.317-0.026-0.444
				l-5.579-3.221c-0.22-0.127-0.565-0.135-0.77-0.016l-4.825,2.785c-0.204,0.118-0.192,0.317,0.028,0.444l5.578,3.221
				C347.079,288.56,347.425,288.567,347.629,288.449z M316.102,288.246l4.825-2.785c0.205-0.119,0.192-0.317-0.027-0.445
				l-5.579-3.22c-0.22-0.128-0.565-0.135-0.77-0.017l-4.824,2.786c-0.206,0.118-0.193,0.316,0.027,0.444l5.578,3.22
				C315.553,288.357,315.897,288.364,316.102,288.246z M300.126,315.875l14.102-8.142c0.205-0.118,0.192-0.317-0.027-0.444
				l-5.579-3.221c-0.22-0.127-0.565-0.135-0.77-0.016l-14.102,8.142c-0.205,0.118-0.192,0.317,0.027,0.444l5.578,3.221
				C299.576,315.986,299.921,315.994,300.126,315.875z M339.809,292.505c0.22,0.127,0.564,0.134,0.768,0.016l4.825-2.785
				c0.205-0.119,0.192-0.317-0.027-0.445l-5.579-3.221c-0.22-0.127-0.565-0.134-0.769-0.016l-4.825,2.786
				c-0.205,0.118-0.192,0.317,0.027,0.443L339.809,292.505z M332.608,287.919l4.824-2.785c0.205-0.118,0.193-0.317-0.027-0.444
				l-5.578-3.221c-0.221-0.128-0.565-0.134-0.77-0.017l-4.825,2.786c-0.205,0.118-0.192,0.317,0.027,0.444l5.579,3.221
				C332.059,288.03,332.403,288.037,332.608,287.919z M293.074,319.946l4.824-2.785c0.206-0.118,0.193-0.317-0.027-0.444
				l-5.578-3.221c-0.221-0.128-0.565-0.135-0.77-0.016l-4.825,2.785c-0.205,0.118-0.192,0.317,0.028,0.444l5.578,3.221
				C292.525,320.058,292.869,320.065,293.074,319.946z M324.221,301.504c0.221,0.127,0.565,0.134,0.77,0.016l4.824-2.785
				c0.205-0.118,0.192-0.317-0.027-0.444l-5.579-3.221c-0.22-0.128-0.565-0.135-0.77-0.017l-4.824,2.786
				c-0.205,0.118-0.193,0.317,0.027,0.444L324.221,301.504z M257.818,340.302l4.824-2.785c0.205-0.118,0.192-0.317-0.027-0.444
				l-5.579-3.221c-0.22-0.128-0.564-0.135-0.77-0.017l-4.824,2.786c-0.205,0.118-0.192,0.317,0.027,0.444l5.578,3.221
				C257.269,340.413,257.613,340.42,257.818,340.302z M264.869,336.23l4.825-2.785c0.204-0.118,0.192-0.317-0.028-0.444
				l-5.578-3.222c-0.221-0.126-0.565-0.134-0.77-0.015l-4.824,2.785c-0.205,0.118-0.193,0.317,0.026,0.444l5.579,3.221
				C264.32,336.342,264.664,336.35,264.869,336.23z M250.767,344.373l4.824-2.785c0.205-0.119,0.193-0.317-0.027-0.445l-5.578-3.22
				c-0.22-0.128-0.565-0.135-0.77-0.017l-4.824,2.785c-0.206,0.119-0.193,0.317,0.027,0.445l5.579,3.221
				C250.217,344.484,250.561,344.491,250.767,344.373z M278.972,328.089l4.824-2.785c0.205-0.119,0.193-0.317-0.027-0.444
				l-5.578-3.222c-0.22-0.127-0.564-0.134-0.77-0.016l-4.825,2.786c-0.204,0.117-0.192,0.316,0.027,0.443l5.579,3.222
				C278.422,328.2,278.767,328.207,278.972,328.089z M271.92,332.159l4.825-2.785c0.205-0.118,0.193-0.316-0.027-0.444l-5.579-3.221
				c-0.22-0.127-0.565-0.135-0.77-0.016l-4.824,2.785c-0.205,0.118-0.193,0.317,0.027,0.444l5.579,3.222
				C271.371,332.271,271.716,332.278,271.92,332.159z M286.022,324.018l4.825-2.785c0.205-0.118,0.192-0.317-0.027-0.444
				l-5.579-3.221c-0.22-0.127-0.564-0.135-0.77-0.017l-4.824,2.786c-0.205,0.118-0.192,0.317,0.027,0.444l5.578,3.221
				C285.474,324.129,285.817,324.136,286.022,324.018z M318.282,263.793c0.221,0.127,0.565,0.134,0.77,0.016l4.824-2.786
				c0.205-0.118,0.192-0.316-0.027-0.443l-1.485-0.858c-0.22-0.127-0.565-0.134-0.77-0.016l-4.824,2.786
				c-0.205,0.118-0.193,0.316,0.027,0.444L318.282,263.793z M283.589,286.186c0.22,0.127,0.564,0.135,0.77,0.016l4.824-2.785
				c0.205-0.118,0.193-0.317-0.027-0.444l-5.578-3.221c-0.221-0.128-0.565-0.135-0.771-0.017l-4.824,2.786
				c-0.205,0.118-0.192,0.317,0.027,0.444L283.589,286.186z M297.691,278.045c0.22,0.127,0.565,0.134,0.77,0.016l4.824-2.785
				c0.205-0.119,0.192-0.317-0.027-0.445l-5.579-3.221c-0.22-0.127-0.564-0.134-0.77-0.016l-4.824,2.785
				c-0.204,0.118-0.192,0.318,0.027,0.444L297.691,278.045z M274.978,291.157c0.22,0.128,0.565,0.135,0.77,0.017l4.825-2.786
				c0.204-0.118,0.192-0.317-0.028-0.444l-5.578-3.221c-0.221-0.127-0.565-0.134-0.77-0.016l-4.825,2.785
				c-0.205,0.118-0.192,0.317,0.028,0.445L274.978,291.157z M290.64,282.115c0.22,0.128,0.565,0.135,0.771,0.017l4.824-2.786
				c0.204-0.118,0.192-0.317-0.027-0.444l-5.579-3.221c-0.22-0.127-0.564-0.134-0.77-0.016l-4.824,2.785
				c-0.205,0.119-0.193,0.317,0.026,0.444L290.64,282.115z M260.876,299.3c0.22,0.127,0.564,0.134,0.769,0.016l4.824-2.785
				c0.205-0.118,0.193-0.317-0.026-0.444l-5.579-3.221c-0.221-0.127-0.565-0.135-0.771-0.016l-4.824,2.785
				c-0.205,0.118-0.192,0.317,0.027,0.444L260.876,299.3z M267.927,295.228c0.221,0.127,0.565,0.135,0.771,0.016l4.824-2.785
				c0.205-0.118,0.192-0.316-0.027-0.444l-5.579-3.221c-0.22-0.127-0.564-0.134-0.77-0.016l-4.824,2.785
				c-0.205,0.118-0.192,0.317,0.027,0.444L267.927,295.228z M304.18,271.935c0.221,0.127,0.564,0.134,0.77,0.016l4.825-2.785
				c0.205-0.118,0.192-0.317-0.027-0.444l-1.485-0.857c-0.22-0.127-0.564-0.134-0.77-0.016l-4.824,2.785
				c-0.205,0.118-0.193,0.317,0.027,0.444L304.18,271.935z M325.334,259.722c0.221,0.127,0.564,0.134,0.769,0.016l4.825-2.785
				c0.204-0.119,0.192-0.317-0.028-0.444l-1.484-0.858c-0.221-0.126-0.564-0.134-0.77-0.015l-4.825,2.785
				c-0.205,0.118-0.192,0.317,0.027,0.444L325.334,259.722z M337.053,266.487c0.221,0.127,0.565,0.134,0.771,0.016l4.824-2.785
				c0.205-0.118,0.192-0.317-0.027-0.444l-5.579-3.221c-0.22-0.127-0.564-0.134-0.77-0.016l-4.824,2.785
				c-0.205,0.118-0.193,0.317,0.027,0.444L337.053,266.487z M354.681,284.378l4.824-2.785c0.205-0.118,0.193-0.317-0.027-0.444
				l-5.579-3.221c-0.219-0.127-0.564-0.134-0.77-0.017l-4.824,2.786c-0.205,0.118-0.192,0.317,0.027,0.444l5.579,3.221
				C354.131,284.489,354.476,284.496,354.681,284.378z M311.231,267.863c0.22,0.127,0.565,0.135,0.77,0.016l4.824-2.785
				c0.205-0.118,0.193-0.317-0.027-0.444l-1.484-0.857c-0.221-0.127-0.565-0.134-0.77-0.016l-4.824,2.785
				c-0.204,0.119-0.192,0.317,0.027,0.444L311.231,267.863z M253.824,303.371c0.221,0.127,0.565,0.134,0.77,0.016l4.825-2.785
				c0.205-0.119,0.192-0.317-0.027-0.444l-5.579-3.222c-0.22-0.127-0.564-0.134-0.769-0.016l-4.825,2.786
				c-0.205,0.118-0.192,0.316,0.028,0.443L253.824,303.371z"/>
		</g>
		<g id="XMLID_15859_">
			<polygon style="fill:#263238;" points="282.496,347.195 335.303,316.708 367.8,335.47 314.992,365.958 			"/>
		</g>
	</g>
</g>
<g id="Screen">
	<g>
		<g id="XMLID_15884_">
			<g id="XMLID_15861_">
				<path style="fill:#F5F5F5;" d="M176.42,166.387L333.77,75.541c3.077-1.777,5.595-0.323,5.595,3.23v121.874
					c0,1.65-1.169,3.675-2.598,4.5l-161.35,93.152c-1.429,0.825-2.598,0.15-2.598-1.5V172.622
					C172.82,170.336,174.44,167.53,176.42,166.387z"/>
			</g>
			<g id="XMLID_15865_">
				<path style="fill:#263238;" d="M339.365,81.69v-2.919c0-3.553-2.517-5.007-5.595-3.23L176.42,166.387
					c-1.98,1.143-3.6,3.949-3.6,6.235v5.224L339.365,81.69z"/>
			</g>
			<g id="XMLID_15878_">
				<path style="fill:#E0E0E0;" d="M315.902,88.344c-1.064,0.614-1.928,2.108-1.928,3.337c0,1.229,0.863,1.727,1.928,1.112
					c1.065-0.614,1.927-2.108,1.927-3.337C317.829,88.228,316.967,87.73,315.902,88.344z"/>
			</g>
			<g id="XMLID_15877_">
				<path style="fill:#E0E0E0;" d="M323.549,83.93c-1.064,0.614-1.927,2.108-1.927,3.337c0,1.229,0.862,1.727,1.927,1.112
					c1.064-0.614,1.927-2.108,1.927-3.337C325.476,83.813,324.613,83.315,323.549,83.93z"/>
			</g>
			<g id="XMLID_15876_">
				<path style="fill:#E0E0E0;" d="M331.195,79.515c-1.064,0.615-1.927,2.109-1.927,3.338c0,1.229,0.862,1.727,1.927,1.112
					c1.065-0.614,1.927-2.109,1.927-3.337C333.122,79.398,332.26,78.9,331.195,79.515z"/>
			</g>
			<g id="XMLID_15892_">
				<polygon style="fill:#27DEBF;" points="172.82,177.846 172.821,201.298 339.363,105.144 339.365,81.69 				"/>
				<polygon style="opacity:0.1;" points="172.82,177.846 172.821,201.298 339.363,105.144 339.365,81.69 				"/>
			</g>
			<g id="XMLID_15893_">
				<path style="fill:#FAFAFA;" d="M183.727,189.077c-0.728,0.181-1.303,0.212-1.729,0.097V177.68c0-0.246,0.048-0.454,0.143-0.626
					c0.095-0.171,0.255-0.322,0.479-0.451l0.856-0.495c0.224-0.129,0.386-0.164,0.486-0.106c0.101,0.058,0.151,0.21,0.151,0.456
					v3.779c0.291-0.465,0.672-0.911,1.142-1.338c0.47-0.426,0.974-0.794,1.511-1.105c1.265-0.73,2.237-0.892,2.92-0.484
					c0.683,0.407,1.025,1.334,1.025,2.781c0,1.681-0.4,3.216-1.2,4.609c-0.8,1.392-1.983,2.54-3.55,3.445
					C185.198,188.586,184.454,188.895,183.727,189.077z M187.915,184.391c0.442-0.83,0.663-1.833,0.663-3.009
					c0-0.982-0.176-1.601-0.529-1.856c-0.353-0.255-0.942-0.144-1.771,0.334c-0.571,0.33-1.074,0.785-1.511,1.366
					c-0.437,0.582-0.654,1.189-0.654,1.822v3.935c0.19,0.033,0.447-0.002,0.772-0.106c0.324-0.104,0.648-0.249,0.973-0.436
					C186.787,185.905,187.474,185.221,187.915,184.391z"/>
				<path style="fill:#FAFAFA;" d="M192.498,183.906c-0.096-0.061-0.144-0.208-0.144-0.441V171.7c0-0.246,0.048-0.454,0.144-0.625
					c0.095-0.171,0.254-0.322,0.478-0.451l0.89-0.514c0.225-0.129,0.387-0.165,0.487-0.106c0.101,0.058,0.151,0.209,0.151,0.456
					v11.765c0,0.233-0.048,0.435-0.143,0.606c-0.096,0.171-0.261,0.325-0.496,0.461l-0.89,0.514
					C192.752,183.934,192.593,183.967,192.498,183.906z"/>
				<path style="fill:#FAFAFA;" d="M197.331,180.253c-0.788-0.43-1.183-1.407-1.183-2.932c0-1.524,0.395-2.958,1.183-4.297
					c0.789-1.34,1.911-2.432,3.366-3.271c1.455-0.84,2.579-1.046,3.374-0.62c0.795,0.426,1.192,1.401,1.192,2.926
					c0,1.525-0.397,2.96-1.192,4.304c-0.795,1.344-1.919,2.436-3.374,3.276C199.242,180.477,198.12,180.683,197.331,180.253z
					 M202.511,175.974c0.413-0.768,0.62-1.663,0.62-2.685c0-1.008-0.207-1.654-0.62-1.938c-0.415-0.284-1.02-0.196-1.813,0.263
					c-0.783,0.452-1.386,1.061-1.805,1.826c-0.42,0.766-0.629,1.652-0.629,2.66c0,1.009,0.209,1.659,0.629,1.953
					c0.419,0.295,1.021,0.215,1.805-0.237C201.491,177.357,202.096,176.743,202.511,175.974z"/>
				<path style="fill:#FAFAFA;" d="M209.291,177.467c-0.615,0.212-1.085,0.296-1.41,0.251c-0.18-0.013-0.224-0.129-0.135-0.348
					l0.487-1.231c0.067-0.168,0.135-0.271,0.201-0.31c0.045-0.026,0.101-0.04,0.169-0.04c0.614,0.006,1.414-0.274,2.399-0.843
					c0.75-0.433,1.299-0.957,1.646-1.57c0.347-0.614,0.52-1.412,0.52-2.394c-0.313,0.568-0.679,1.068-1.099,1.497
					c-0.42,0.43-0.927,0.816-1.52,1.158c-1.253,0.724-2.23,0.894-2.929,0.508c-0.7-0.384-1.05-1.294-1.05-2.728
					c0-1.628,0.417-3.119,1.251-4.472c0.833-1.353,2.039-2.486,3.617-3.397c0.728-0.42,1.441-0.716,2.141-0.887
					c0.699-0.17,1.268-0.208,1.703-0.11v6.648c0,1.564-0.329,2.981-0.99,4.254c-0.66,1.273-1.694,2.315-3.106,3.13
					C210.539,176.96,209.906,177.253,209.291,177.467z M212.581,170.072c0.392-0.607,0.587-1.247,0.587-1.919v-3.45
					c-0.212,0.006-0.481,0.072-0.805,0.193c-0.325,0.123-0.666,0.288-1.024,0.495c-1.769,1.021-2.652,2.571-2.652,4.652
					c0,0.956,0.195,1.557,0.588,1.802c0.392,0.246,0.984,0.139,1.779-0.32C211.68,171.164,212.189,170.68,212.581,170.072z"/>
			</g>
			<g id="XMLID_14969_">
				<path style="fill:#27DEBF;" d="M201.255,195.262v82.428c0,0.552,0.285,0.828,0.637,0.615c0.352-0.212,0.637-0.832,0.637-1.384
					v-82.428c0-0.552-0.285-0.828-0.637-0.616C201.54,194.09,201.255,194.71,201.255,195.262z"/>
			</g>
		</g>
		<g id="XMLID_695_">
			<g id="XMLID_14642_">
				<g id="XMLID_15894_">
					<path style="fill:#E0E0E0;" d="M152.511,227.237l36.29-20.952c1.196-0.691,2.165-0.131,2.165,1.25v25.527
						c0.001,1.381-0.969,3.06-2.165,3.75l-36.29,20.952c-1.196,0.69-2.165,0.131-2.165-1.25v-25.527
						C150.346,229.606,151.315,227.927,152.511,227.237z"/>
				</g>
				<g id="XMLID_15898_">
					<path style="fill:#27DEBF;" d="M190.966,207.535c0-1.381-0.969-1.941-2.165-1.25l-36.29,20.952
						c-1.196,0.69-2.165,2.369-2.165,3.75v2.175l40.62-23.452V207.535z"/>
				</g>
			</g>
			<g id="XMLID_14633_">
				<polygon style="fill:#FAFAFA;" points="154.408,235.507 170.656,226.126 170.656,242.543 154.408,251.923 				"/>
			</g>
			<g id="XMLID_14640_">
				<path style="fill:#27DEBF;" d="M154.408,249.542l6.093-10.819c0.271-0.481,0.792-0.54,1.165-0.132l2.134,2.338l3.668-8.473
					c0.22-0.507,0.655-0.552,0.973-0.1l2.215,3.151v7.036l-16.248,9.38V249.542z"/>
			</g>
			<g id="XMLID_703_">
				<path id="XMLID_34_" style="fill:#FAFAFA;" d="M174.719,225.196c0,0.782,0.581,1.08,1.299,0.665l9.587-5.536
					c0.717-0.414,1.299-1.383,1.299-2.165c0-0.782-0.581-1.08-1.299-0.665l-9.588,5.536
					C175.3,223.445,174.719,224.414,174.719,225.196z"/>
				<path style="fill:#FAFAFA;" d="M174.719,231.95c0,0.782,0.581,1.08,1.299,0.665l9.587-5.536
					c0.717-0.414,1.299-1.383,1.299-2.165c0-0.781-0.581-1.079-1.299-0.665l-9.588,5.536
					C175.3,230.199,174.719,231.169,174.719,231.95z"/>
				<path id="XMLID_31_" style="fill:#FAFAFA;" d="M174.719,238.704c0,0.781,0.581,1.08,1.299,0.665l9.587-5.536
					c0.717-0.415,1.299-1.384,1.299-2.165c0-0.781-0.581-1.079-1.299-0.665l-9.588,5.536
					C175.3,236.953,174.719,237.922,174.719,238.704z"/>
			</g>
		</g>
		<g id="XMLID_704_">
			<g id="XMLID_15510_">
				<g id="XMLID_15512_">
					<path style="fill:#E0E0E0;" d="M152.511,266.762l36.29-20.952c1.196-0.691,2.165-0.131,2.165,1.25v25.527
						c0.001,1.381-0.969,3.06-2.165,3.75l-36.29,20.952c-1.196,0.69-2.165,0.131-2.165-1.25v-25.527
						C150.346,269.131,151.315,267.452,152.511,266.762z"/>
				</g>
				<g id="XMLID_15511_">
					<path style="fill:#27DEBF;" d="M190.966,247.06c0-1.381-0.969-1.941-2.165-1.25l-36.29,20.952
						c-1.196,0.69-2.165,2.369-2.165,3.75v2.175l40.62-23.452V247.06z"/>
				</g>
			</g>
			<g id="XMLID_15500_">
				<polygon style="fill:#FAFAFA;" points="154.408,275.031 170.656,265.651 170.656,282.067 154.408,291.448 				"/>
			</g>
			<g id="XMLID_15488_">
				<path style="fill:#27DEBF;" d="M154.408,289.067l6.093-10.819c0.271-0.48,0.792-0.54,1.165-0.133l2.134,2.339l3.668-8.474
					c0.22-0.507,0.655-0.551,0.973-0.1l2.215,3.15v7.036l-16.248,9.381V289.067z"/>
			</g>
			<g id="XMLID_705_">
				<path id="XMLID_36_" style="fill:#FAFAFA;" d="M174.719,264.721c0,0.782,0.581,1.08,1.299,0.665l9.587-5.535
					c0.717-0.414,1.299-1.384,1.299-2.165c0-0.782-0.581-1.08-1.299-0.666l-9.588,5.536
					C175.3,262.97,174.719,263.94,174.719,264.721z"/>
				<path style="fill:#FAFAFA;" d="M174.719,271.475c0,0.782,0.581,1.08,1.299,0.666l9.587-5.536
					c0.717-0.414,1.299-1.384,1.299-2.165c0-0.782-0.581-1.08-1.299-0.665l-9.588,5.535
					C175.3,269.724,174.719,270.693,174.719,271.475z"/>
				<path id="XMLID_35_" style="fill:#FAFAFA;" d="M174.719,278.229c0,0.781,0.581,1.079,1.299,0.665l9.587-5.536
					c0.717-0.414,1.299-1.384,1.299-2.165c0-0.781-0.581-1.079-1.299-0.665l-9.588,5.535
					C175.3,276.478,174.719,277.447,174.719,278.229z"/>
			</g>
		</g>
		<g id="XMLID_15501_">
			<g id="XMLID_15394_">
				<g id="XMLID_15595_">
					<g id="XMLID_15597_">
						<path style="fill:#E0E0E0;" d="M215.605,228.186l111.571-64.41c1.196-0.69,2.165-0.131,2.165,1.25l0.001,32.536
							c0,1.381-0.97,3.06-2.165,3.75l-111.572,64.41c-1.196,0.69-2.165,0.131-2.165-1.25l-0.001-32.536
							C213.44,230.555,214.41,228.876,215.605,228.186z"/>
					</g>
					<g id="XMLID_15596_">
						<path style="fill:#27DEBF;" d="M329.342,165.026c0-1.381-0.969-1.94-2.165-1.25l-111.571,64.41
							c-1.196,0.691-2.165,2.37-2.165,3.75v2.175l115.901-66.91V165.026z"/>
					</g>
				</g>
			</g>
			<g id="XMLID_15541_">
				<path style="fill:#FAFAFA;" d="M240.956,221.435l-22.533,13.009c-0.957,0.552-1.732,1.895-1.732,3v22.272
					c0,1.105,0.775,1.553,1.732,1l22.533-13.008c0.956-0.552,1.732-1.895,1.732-3v-22.273
					C242.687,221.33,241.912,220.882,240.956,221.435z"/>
			</g>
			<g id="XMLID_15557_">
				<path style="fill:#27DEBF;" d="M224.638,241.007l-7.948,16.95v1.759c0,1.105,0.775,1.553,1.732,1l22.533-13.008
					c0.956-0.552,1.732-1.895,1.732-3v-7.695l-4.261-8.036c-0.518-0.976-1.288-0.943-1.72,0.074l-6.71,15.775l-3.259-4.068
					C226.047,239.895,225.107,240.007,224.638,241.007z"/>
			</g>
			<g id="XMLID_15558_">
				<path style="fill:#27DEBF;" d="M219.295,240.803c2.151-1.242,3.895-4.262,3.895-6.745c0-0.869-0.218-1.553-0.587-2.027
					l-4.18,2.413c-0.957,0.552-1.732,1.895-1.732,3v3.702C217.38,241.466,218.292,241.382,219.295,240.803z"/>
			</g>
			<g id="XMLID_708_">
				<path style="fill:#FAFAFA;" d="M252.874,216.529l69.653-40.214c0.956-0.552,1.733-0.174,1.733,0.844
					c0,1.019-0.775,2.292-1.732,2.845l-69.654,40.214c-0.956,0.552-1.731,0.174-1.731-0.845
					C251.143,218.355,251.918,217.081,252.874,216.529z"/>
			</g>
			<g id="XMLID_15513_">
				<path style="fill:#FAFAFA;" d="M252.874,225.91l69.653-40.214c0.956-0.552,1.733-0.174,1.733,0.844
					c0,1.019-0.775,2.293-1.732,2.845L252.874,229.6c-0.956,0.552-1.731,0.174-1.731-0.845
					C251.143,227.736,251.918,226.462,252.874,225.91z"/>
			</g>
			<g id="XMLID_15560_">
				<path style="fill:#FAFAFA;" d="M252.874,235.29l69.653-40.214c0.956-0.552,1.733-0.174,1.733,0.845
					c0,1.019-0.775,2.292-1.732,2.845l-69.654,40.214c-0.956,0.552-1.731,0.174-1.731-0.845
					C251.143,237.116,251.918,235.842,252.874,235.29z"/>
			</g>
		</g>
	</g>
</g>
<g id="Character">
	<g id="XMLID_15879_">
		<g id="XMLID_15849_">
			<path style="fill:#F28F8F;" d="M366.84,125.309l-10.224-0.284c-0.688-0.588-11.426-12.707-11.426-12.707
				s-3.864,6.097-3.929,6.486c-0.064,0.388,10.529,11.717,11.576,12.86c0.58,0.632,1.111,1.139,2.5,1.222
				c2.771,0.166,13.146,0.896,13.146,0.896L366.84,125.309z"/>
		</g>
		<g id="XMLID_15933_">
			<polygon style="fill:#27DEBF;" points="381.379,137.056 365.618,135.89 366.84,125.309 383.109,125.664 			"/>
			<polygon style="opacity:0.2;" points="381.379,137.056 365.618,135.89 366.84,125.309 383.109,125.664 			"/>
		</g>
		<g id="XMLID_15570_">
			<g id="XMLID_15601_">
				<g id="XMLID_15602_">
					<g id="XMLID_15604_">
						<path style="fill:#E0E0E0;" d="M235.916,171.859l111.571-64.41c1.195-0.69,2.165-0.131,2.165,1.25v32.536
							c0,1.381-0.969,3.06-2.165,3.75l-111.571,64.41c-1.196,0.69-2.165,0.13-2.165-1.25l-0.001-32.536
							C233.75,174.229,234.72,172.55,235.916,171.859z"/>
					</g>
					<g id="XMLID_15603_">
						<path style="fill:#27DEBF;" d="M349.652,108.7c0-1.381-0.97-1.94-2.165-1.25l-111.571,64.41
							c-1.196,0.69-2.166,2.37-2.165,3.75v2.175l115.901-66.91V108.7z"/>
					</g>
				</g>
			</g>
			<g id="XMLID_15600_">
				<path style="fill:#FAFAFA;" d="M261.266,165.108l-22.533,13.009c-0.956,0.552-1.732,1.895-1.732,3v22.272
					c0,1.104,0.775,1.552,1.732,1l22.533-13.008c0.957-0.552,1.732-1.895,1.732-3v-22.273
					C262.998,165.004,262.223,164.556,261.266,165.108z"/>
			</g>
			<g id="XMLID_15599_">
				<path style="fill:#27DEBF;" d="M244.948,184.681L237,201.631v1.758c0,1.104,0.775,1.552,1.732,1l22.533-13.008
					c0.957-0.552,1.732-1.895,1.732-3v-7.695l-4.262-8.036c-0.518-0.976-1.287-0.943-1.72,0.074l-6.71,15.775l-3.259-4.068
					C246.357,183.568,245.417,183.681,244.948,184.681z"/>
			</g>
			<g id="XMLID_15598_">
				<path style="fill:#27DEBF;" d="M239.605,184.477c2.151-1.242,3.895-4.262,3.895-6.745c0-0.869-0.217-1.553-0.587-2.027
					l-4.18,2.414c-0.956,0.552-1.732,1.895-1.732,3v3.702C237.691,185.14,238.602,185.056,239.605,184.477z"/>
			</g>
			<g id="XMLID_15594_">
				<path style="fill:#FAFAFA;" d="M273.185,160.203l69.653-40.214c0.956-0.552,1.731-0.174,1.731,0.844
					c0.001,1.019-0.774,2.292-1.731,2.845l-69.653,40.214c-0.957,0.552-1.733,0.174-1.733-0.845
					C271.452,162.029,272.227,160.755,273.185,160.203z"/>
			</g>
			<g id="XMLID_15593_">
				<path style="fill:#FAFAFA;" d="M273.185,169.583l69.653-40.214c0.956-0.552,1.731-0.174,1.731,0.844
					c0.001,1.019-0.774,2.292-1.731,2.845l-69.653,40.215c-0.957,0.552-1.733,0.174-1.733-0.845
					C271.452,171.41,272.227,170.136,273.185,169.583z"/>
			</g>
			<g id="XMLID_15591_">
				<path style="fill:#FAFAFA;" d="M273.185,178.964l69.653-40.214c0.956-0.552,1.731-0.174,1.731,0.845
					c0.001,1.019-0.774,2.292-1.731,2.844l-69.653,40.215c-0.957,0.552-1.733,0.174-1.733-0.845
					C271.452,180.79,272.227,179.516,273.185,178.964z"/>
			</g>
		</g>
		<g id="XMLID_15927_">
			<g id="XMLID_15928_">
				<g id="XMLID_15959_">
					<rect x="395.598" y="248.917" style="fill:#FFA8A7;" width="5.904" height="8.598"/>
				</g>
				<g id="XMLID_15958_">
					
						<rect x="374.98" y="238.375" transform="matrix(0.9994 -0.0343 0.0343 0.9994 -8.1077 13.1165)" style="fill:#FFA8A7;" width="5.905" height="8.598"/>
				</g>
				<g id="XMLID_15956_">
					<path style="fill:#455A64;" d="M401.114,164.98c0,5.638,0.729,42.111,0.729,42.111c0.138,1.622,1.658,4.613,1.329,10.845
						c-0.447,8.464-1.179,31.979-1.179,31.979s-2.768,2.744-6.678,0c0,0-5.346-31.95-6.404-40.338
						c-0.923-7.321-2.489-27.209-2.489-27.209l-5.471,23.411c0,0,0.963,5.503,1.174,9.387c0.212,3.884-1.002,26.318-1.002,26.318
						s-3.001,2.074-6.425,0.245c0,0-4.743-32.777-5.353-36.285c-0.608-3.508,4.152-40.463,4.152-40.463H401.114z"/>
				</g>
				<g id="XMLID_15955_">
					<path style="fill:#27DEBF;" d="M392.227,125.932c0.026,0.006,0.053,0.013,0.08,0.019c5.199,1.291,8.808,6.031,8.808,11.388
						v10.169v17.472c-4.141,4.504-18.574,6.603-27.615,0c0,0,0-24.183,0-28.782c0-4.599,2.555-10.124,9.61-10.534L392.227,125.932z"
						/>
				</g>
				<g id="XMLID_15940_">
					<g id="XMLID_15948_">
						<g id="XMLID_15954_">
							<path style="fill:#263238;" d="M394.214,102.394c0,0,1.463-0.25,2.603,0.916c1.118,1.143,0.886,3.26-0.002,8.123
								l-3.455,0.396L394.214,102.394z"/>
						</g>
						<g id="XMLID_15953_">
							<path style="fill:#263238;" d="M374.065,100.987c0,0-1.396,0.001-2.162-0.439c-1.061-0.609-1.338,0.596-0.756,1.644
								c0.581,1.047,1.667,2.412,4.009,2.67c0.031-0.15,0.992-2.699,0.992-2.699L374.065,100.987z"/>
						</g>
						<g id="XMLID_15952_">
							<path style="fill:#FFA8A7;" d="M392.593,111.832c0.513,0.306,1.245-0.679,1.878-1.341c0.633-0.662,2.698-1.566,3.729,0.604
								c1.05,2.212-1.334,5.154-2.733,6.127c-1.663,1.155-2.873,0.249-2.873,0.249l-0.366,8.461c0,0-1.835,4.489-6.804,5.163
								c-4.968,0.674-3.945-3.423-2.314-5.43l0.008-3.076c0,0-2.566,0.517-3.777,0.194c-0.648-0.173-2.193-2.042-3.191-4.132
								c-1.12-2.348-2.983-6.516-1.325-13.565c1.782-7.573,9.917-7.804,14.769-4.75
								C394.442,103.387,392.593,111.832,392.593,111.832z"/>
						</g>
						<g id="XMLID_15951_">
							<path style="fill:#263238;" d="M392.593,112.695c0.258,0.005,1.239-1.623,1.878-2.205c0.885-0.805-0.257-8.097-0.257-8.097
								s0.895-2.766-0.854-4.6c-1.749-1.834-5.138-1.524-7.616-1.614c-2.578-0.093-5.339-0.249-8.859-1.777
								c-3.52-1.529-3.782-1.71-4.219-0.164c-0.438,1.545-0.602,5.085,1.499,7.457l1.747,0.642c0,0,0.943,0.837,4.227,1.237
								c3.282,0.4,8.396-0.077,9.095-0.172c0.951-0.13,1.155,0.793,1.668,3.313C391.352,108.929,391.726,112.678,392.593,112.695z"
								/>
						</g>
						<g id="XMLID_15950_">
							<path style="fill:#263238;" d="M394.209,102.961l3.101-1.665c-0.439-0.889-1.491-1.236-2.348-0.776
								C394.106,100.979,393.769,102.072,394.209,102.961z"/>
						</g>
						<g id="XMLID_15949_">
							<path style="fill:#F28F8F;" d="M383.117,122.588c0,0,4.601-0.927,6.209-1.782c1.076-0.572,1.963-1.564,2.223-2.2
								c0,0-0.301,1.365-1.263,2.595c-1.177,1.503-7.169,2.611-7.169,2.611V122.588z"/>
						</g>
					</g>
					<g id="XMLID_15941_">
						<g id="XMLID_15947_">
							<path style="fill:#263238;" d="M384.223,110.682c0,0.529,0.413,0.957,0.922,0.956c0.51-0.002,0.922-0.432,0.922-0.96
								c0-0.529-0.412-0.957-0.922-0.956C384.636,109.723,384.223,110.153,384.223,110.682z"/>
						</g>
						<g id="XMLID_15946_">
							<path style="fill:#263238;" d="M385.2,107.201l1.973,1.089c0.291-0.567,0.085-1.27-0.46-1.57
								C386.168,106.419,385.491,106.635,385.2,107.201z"/>
						</g>
						<g id="XMLID_15945_">
							<path style="fill:#F28F8F;" d="M384.292,116.933l-2.104,0.79c0.208,0.603,0.849,0.916,1.43,0.697
								C384.198,118.201,384.5,117.536,384.292,116.933z"/>
						</g>
						<g id="XMLID_15944_">
							<path style="fill:#263238;" d="M376.002,107.969l1.799-1.385c-0.367-0.515-1.067-0.622-1.564-0.24
								C375.74,106.726,375.636,107.454,376.002,107.969z"/>
						</g>
						<g id="XMLID_15943_">
							<path style="fill:#263238;" d="M376.556,110.419c0,0.529,0.413,0.957,0.922,0.955c0.509-0.001,0.922-0.431,0.922-0.96
								c0-0.529-0.413-0.957-0.922-0.955C376.969,109.46,376.556,109.89,376.556,110.419z"/>
						</g>
						<g id="XMLID_15942_">
							<polygon style="fill:#F28F8F;" points="381.252,109.545 380.949,115.089 378.055,114.103 							"/>
						</g>
					</g>
				</g>
				<g id="XMLID_15930_">
					<path style="fill:#263238;" d="M395.598,254.602v-0.845c-0.565,0.246-1.878,5.254-4.22,7.391
						c-1.863,1.699-4.403,3.661-5.05,5.555c-0.672,1.97,3.538,3.058,5.278,2.749c2.022-0.358,5.525-1.781,6.405-3.102
						c0.88-1.319,1.291-3.266,2.006-4.233c0.715-0.967,2.363-2.047,2.749-3.166c0.213-0.614-0.039-1.961-0.338-3.1
						c-0.273-1.044-0.57-2.191-0.927-2.094c-0.001,0.128,0,0.644,0,0.644c-0.429,0.476-1.614,0.947-2.952,0.998
						C397.686,255.432,395.591,255.261,395.598,254.602z"/>
				</g>
				<g id="XMLID_15929_">
					<path style="fill:#263238;" d="M375.067,245.251c-0.307,0.01-0.557,0.443-1.232,1.175c-0.817,0.885-2.154,1.839-3.474,2.499
						c-2.211,1.107-6.509,2.809-8.454,3.686c-1.216,0.547-1.158,2.015,0.098,2.851c1.257,0.835,4.289,1.438,7.931,0.623
						c1.984-0.444,4.567-2.276,6.201-2.178c1.635,0.099,4.693,0.075,5.9-0.756c1.207-0.832,0.724-2.608,0.383-4.134
						c-0.372-1.666-0.905-4.215-1.456-4.101l0.017,0.524c-0.71,1.075-4.323,1.514-5.883,0.723L375.067,245.251z"/>
				</g>
			</g>
		</g>
		<g id="XMLID_15932_">
			<path style="fill:#FFA8A7;" d="M394.016,129.767l-18.232,18.861c0,0-15.988-2.862-21.459-4.427
				c-1.724-0.493-2.921-3.061-3.301-5.047c-0.38-1.986-1.371-2.592-1.371-2.592s-0.04,1.406-0.362,3.723
				c-0.14,1.006-1.721,1.13-3.127,1.432c-5.024,1.08-6.708-0.024-8.77,1.445c-1.599,1.14,0.404,4.1,4.059,5.101
				c5.125,1.404,7.955,0.703,11.077,1.477c2.407,0.597,19.748,6.042,23.049,6.763c1.746,0.381,3.075,0.261,4.971-1.615
				c1.895-1.876,16.292-14.423,16.292-14.423L394.016,129.767z"/>
		</g>
		<g id="XMLID_15931_">
			<path style="fill:#27DEBF;" d="M394.807,129.115c-2.007-0.501-14.194,14.046-14.194,14.046l6.721,5.635
				c0,0,8.693-5.698,10.238-7.98C399.116,138.534,400.859,130.629,394.807,129.115z"/>
		</g>
		<g id="XMLID_15934_">
			<path style="fill:#27DEBF;" d="M387.77,149.143c0,0,9.179-8.22,9.608-9.119c0.829-1.733,0.603-4.936,0.603-4.936
				s0.998,2.784,0.028,4.934c-0.97,2.15-7.979,8.254-9.109,9.309c-1.13,1.055-1.13,1.055-1.13,1.055l-1.09-1.014l0.653-0.576
				L387.77,149.143z"/>
			<path style="opacity:0.2;" d="M387.77,149.143c0,0,9.179-8.22,9.608-9.119c0.829-1.733,0.603-4.936,0.603-4.936
				s0.998,2.784,0.028,4.934c-0.97,2.15-7.979,8.254-9.109,9.309c-1.13,1.055-1.13,1.055-1.13,1.055l-1.09-1.014l0.653-0.576
				L387.77,149.143z"/>
		</g>
		<g id="XMLID_15850_">
			<path style="fill:#F28F8F;" d="M341.652,108.438c1.999-0.219,3.329-1.702,3.78-1.285c0.45,0.417,0.33,1.133,0.057,1.449
				c-0.557,0.644-2.988,1.726-2.988,1.726s-0.345,1.275-0.543,3.093c-0.167,1.529-0.109,4.584-1.417,5.632
				c-3.907,3.131-4.913-1.846-4.757-5.183C335.979,109.724,339.557,108.668,341.652,108.438z"/>
		</g>
	</g>
</g>
</svg>
